<svg xmlns="http://www.w3.org/2000/svg" width="480" height="139" style=""><rect id="backgroundrect" width="100%" height="100%" x="0" y="0" fill="none" stroke="none"/>

 <g style="" class="currentLayer">
  <title>Layer 1</title>
  <path id="svg_1" d="m448.07,-1l-9.62,17.24l-8.36,14.96l-60.16,107.8l-370.93,0l0,-140l449.07,0z"/>
  <path id="svg_2" fill="none" d="m-1,139l479.92,0l0,0.01l-479.92,0l0,-0.01z" class="st0"/>
  <text font-style="normal" id="svg_3" x="261.99399" y="65.233" font-weight="normal" font-family="Roboto" fill="#fff" font-size="57" class="st1 st2">Arc</text>
  <text font-style="normal" id="svg_4" x="17.692" y="111.45320226192474" font-weight="normal" font-family="Roboto" fill="#fff" font-size="54" class="st1 st2">Development</text>
  <path id="svg_5" fill="none" d="m382.44,116.43l47.65,-85.23l8.36,-14.96m-68.62,122.76l-0.01,0.01l-7.82,13.99" class="st0"/>
  <path id="svg_6" fill="#0b72b9" d="m438.76,15.76l-56.42,100.91c-12.52,-10.83 -20.45,-26.82 -20.45,-44.67c0,-32.58 26.42,-59 59,-59c6.23,0 12.24,0.97 17.87,2.76z"/>
  <path id="svg_7" d="m479.89,72c0,32.58 -26.42,59 -59,59c-14.73,0 -28.21,-5.4 -38.55,-14.33l56.42,-100.91c23.85,7.57 41.13,29.89 41.13,56.24z"/>
  <g id="Group_186">
   <g id="Group_185">
    <g id="Words">
     <path fill="#fff" d="m435.203,25.813l-0.09,80.38l-7.67,-0.01l0.06,-52.25l-29.4,52.21l-7.94,-0.01l45.04,-80.32z" class="st1" id="Path_59"/>
    </g>
   </g>
  </g>
  <path id="svg_8" fill="none" d="m457,-17l-8.93,16l-9.62,17.24l-8.36,14.96l-60.16,107.8l-0.01,0.01l-8.92,15.99" class="st0"/>
 </g>
<style xmlns="http://www.w3.org/1999/xhtml">@import url(http://fonts.googleapis.com/css?family=Roboto);</style></svg>